<mxfile host="app.diagrams.net" agent="Mozilla/5.0 (Windows NT 10.0; Win64; x64) AppleWebKit/537.36 (KHTML, like Gecko) Chrome/132.0.0.0 Safari/537.36" version="26.0.12">
  <diagram name="페이지-1" id="v-oKgz8hcS2QvyoksxpG">
    <mxGraphModel dx="683" dy="368" grid="1" gridSize="10" guides="1" tooltips="1" connect="1" arrows="1" fold="1" page="1" pageScale="1" pageWidth="827" pageHeight="1169" math="0" shadow="0">
      <root>
        <mxCell id="0" />
        <mxCell id="1" parent="0" />
        <mxCell id="3VPXe_xWvIq6c0ty66gn-39" value="" style="rounded=0;whiteSpace=wrap;html=1;fillColor=#ffe6cc;strokeColor=#d79b00;" vertex="1" parent="1">
          <mxGeometry x="298" y="90" width="212" height="190" as="geometry" />
        </mxCell>
        <mxCell id="3VPXe_xWvIq6c0ty66gn-38" value="" style="rounded=0;whiteSpace=wrap;html=1;fillColor=none;" vertex="1" parent="1">
          <mxGeometry x="450" y="160" width="210" height="120" as="geometry" />
        </mxCell>
        <mxCell id="3VPXe_xWvIq6c0ty66gn-31" value="" style="rounded=0;whiteSpace=wrap;html=1;fillColor=none;" vertex="1" parent="1">
          <mxGeometry x="240" y="160" width="210" height="120" as="geometry" />
        </mxCell>
        <mxCell id="3VPXe_xWvIq6c0ty66gn-1" value="" style="rounded=0;whiteSpace=wrap;html=1;fillColor=#7EA6E0;" vertex="1" parent="1">
          <mxGeometry x="300" y="250" width="40" height="20" as="geometry" />
        </mxCell>
        <mxCell id="3VPXe_xWvIq6c0ty66gn-4" value="" style="rounded=0;whiteSpace=wrap;html=1;fillColor=#7EA6E0;" vertex="1" parent="1">
          <mxGeometry x="350" y="250" width="40" height="20" as="geometry" />
        </mxCell>
        <mxCell id="3VPXe_xWvIq6c0ty66gn-5" value="" style="rounded=0;whiteSpace=wrap;html=1;fillColor=#7EA6E0;" vertex="1" parent="1">
          <mxGeometry x="350" y="220" width="40" height="20" as="geometry" />
        </mxCell>
        <mxCell id="3VPXe_xWvIq6c0ty66gn-10" value="" style="rounded=0;whiteSpace=wrap;html=1;fillColor=#7EA6E0;" vertex="1" parent="1">
          <mxGeometry x="400" y="250" width="40" height="20" as="geometry" />
        </mxCell>
        <mxCell id="3VPXe_xWvIq6c0ty66gn-11" value="" style="rounded=0;whiteSpace=wrap;html=1;fillColor=#7EA6E0;" vertex="1" parent="1">
          <mxGeometry x="400" y="220" width="40" height="20" as="geometry" />
        </mxCell>
        <mxCell id="3VPXe_xWvIq6c0ty66gn-14" value="" style="rounded=0;whiteSpace=wrap;html=1;fillColor=#7EA6E0;" vertex="1" parent="1">
          <mxGeometry x="464" y="250" width="40" height="20" as="geometry" />
        </mxCell>
        <mxCell id="3VPXe_xWvIq6c0ty66gn-15" value="" style="rounded=0;whiteSpace=wrap;html=1;fillColor=#7EA6E0;" vertex="1" parent="1">
          <mxGeometry x="464" y="220" width="40" height="20" as="geometry" />
        </mxCell>
        <mxCell id="3VPXe_xWvIq6c0ty66gn-26" value="" style="endArrow=classic;html=1;rounded=0;startArrow=classic;startFill=1;" edge="1" parent="1">
          <mxGeometry width="50" height="50" relative="1" as="geometry">
            <mxPoint x="720" y="310" as="sourcePoint" />
            <mxPoint x="214" y="80" as="targetPoint" />
            <Array as="points">
              <mxPoint x="214" y="310" />
            </Array>
          </mxGeometry>
        </mxCell>
        <mxCell id="3VPXe_xWvIq6c0ty66gn-27" value="요청수" style="edgeLabel;html=1;align=center;verticalAlign=middle;resizable=0;points=[];rotation=-90;" vertex="1" connectable="0" parent="3VPXe_xWvIq6c0ty66gn-26">
          <mxGeometry x="0.4159" y="3" relative="1" as="geometry">
            <mxPoint x="-7" y="-4" as="offset" />
          </mxGeometry>
        </mxCell>
        <mxCell id="3VPXe_xWvIq6c0ty66gn-28" value="시간" style="edgeLabel;html=1;align=center;verticalAlign=middle;resizable=0;points=[];" vertex="1" connectable="0" parent="3VPXe_xWvIq6c0ty66gn-26">
          <mxGeometry x="0.1238" y="1" relative="1" as="geometry">
            <mxPoint y="9" as="offset" />
          </mxGeometry>
        </mxCell>
        <mxCell id="3VPXe_xWvIq6c0ty66gn-29" value="" style="rounded=0;whiteSpace=wrap;html=1;fillColor=#7EA6E0;" vertex="1" parent="1">
          <mxGeometry x="464" y="190" width="40" height="20" as="geometry" />
        </mxCell>
        <mxCell id="3VPXe_xWvIq6c0ty66gn-33" value="" style="endArrow=classic;startArrow=classic;html=1;rounded=0;" edge="1" parent="1">
          <mxGeometry width="50" height="50" relative="1" as="geometry">
            <mxPoint x="240" y="290" as="sourcePoint" />
            <mxPoint x="450" y="290" as="targetPoint" />
          </mxGeometry>
        </mxCell>
        <mxCell id="3VPXe_xWvIq6c0ty66gn-35" value="직전 1분" style="edgeLabel;html=1;align=center;verticalAlign=middle;resizable=0;points=[];" vertex="1" connectable="0" parent="3VPXe_xWvIq6c0ty66gn-33">
          <mxGeometry x="-0.0286" y="-2" relative="1" as="geometry">
            <mxPoint as="offset" />
          </mxGeometry>
        </mxCell>
        <mxCell id="3VPXe_xWvIq6c0ty66gn-34" value="" style="endArrow=classic;startArrow=classic;html=1;rounded=0;" edge="1" parent="1">
          <mxGeometry width="50" height="50" relative="1" as="geometry">
            <mxPoint x="450" y="290" as="sourcePoint" />
            <mxPoint x="660" y="290" as="targetPoint" />
          </mxGeometry>
        </mxCell>
        <mxCell id="3VPXe_xWvIq6c0ty66gn-36" value="현재 1분" style="edgeLabel;html=1;align=center;verticalAlign=middle;resizable=0;points=[];" vertex="1" connectable="0" parent="3VPXe_xWvIq6c0ty66gn-34">
          <mxGeometry x="0.0714" y="-3" relative="1" as="geometry">
            <mxPoint x="-3" y="-1" as="offset" />
          </mxGeometry>
        </mxCell>
        <mxCell id="3VPXe_xWvIq6c0ty66gn-41" value="현재 윈도" style="text;html=1;align=center;verticalAlign=middle;resizable=0;points=[];autosize=1;strokeColor=none;fillColor=none;" vertex="1" parent="1">
          <mxGeometry x="368" y="90" width="70" height="30" as="geometry" />
        </mxCell>
        <mxCell id="3VPXe_xWvIq6c0ty66gn-42" value="" style="endArrow=classic;html=1;rounded=0;" edge="1" parent="1" target="3VPXe_xWvIq6c0ty66gn-39">
          <mxGeometry width="50" height="50" relative="1" as="geometry">
            <mxPoint x="510" y="70" as="sourcePoint" />
            <mxPoint x="510" y="90" as="targetPoint" />
          </mxGeometry>
        </mxCell>
        <mxCell id="3VPXe_xWvIq6c0ty66gn-43" value="현재 시간" style="text;html=1;align=center;verticalAlign=middle;resizable=0;points=[];autosize=1;strokeColor=none;fillColor=none;" vertex="1" parent="1">
          <mxGeometry x="470" y="48" width="70" height="30" as="geometry" />
        </mxCell>
        <mxCell id="3VPXe_xWvIq6c0ty66gn-47" value="" style="endArrow=classic;startArrow=classic;html=1;rounded=0;exitX=0;exitY=0.25;exitDx=0;exitDy=0;entryX=1;entryY=0;entryDx=0;entryDy=0;" edge="1" parent="1" source="3VPXe_xWvIq6c0ty66gn-39" target="3VPXe_xWvIq6c0ty66gn-31">
          <mxGeometry width="50" height="50" relative="1" as="geometry">
            <mxPoint x="298" y="150" as="sourcePoint" />
            <mxPoint x="450" y="150" as="targetPoint" />
          </mxGeometry>
        </mxCell>
        <mxCell id="3VPXe_xWvIq6c0ty66gn-48" value="70%" style="edgeLabel;html=1;align=center;verticalAlign=middle;resizable=0;points=[];labelBackgroundColor=none;" vertex="1" connectable="0" parent="3VPXe_xWvIq6c0ty66gn-47">
          <mxGeometry x="-0.0053" relative="1" as="geometry">
            <mxPoint x="-4" y="-10" as="offset" />
          </mxGeometry>
        </mxCell>
        <mxCell id="3VPXe_xWvIq6c0ty66gn-49" value="" style="endArrow=classic;startArrow=classic;html=1;rounded=0;exitX=0;exitY=0;exitDx=0;exitDy=0;entryX=0.276;entryY=0.002;entryDx=0;entryDy=0;entryPerimeter=0;elbow=vertical;" edge="1" parent="1" source="3VPXe_xWvIq6c0ty66gn-38" target="3VPXe_xWvIq6c0ty66gn-38">
          <mxGeometry width="50" height="50" relative="1" as="geometry">
            <mxPoint x="450" y="150" as="sourcePoint" />
            <mxPoint x="507.9599999999998" y="150.24" as="targetPoint" />
          </mxGeometry>
        </mxCell>
        <mxCell id="3VPXe_xWvIq6c0ty66gn-50" value="30%" style="edgeLabel;html=1;align=center;verticalAlign=middle;resizable=0;points=[];labelBackgroundColor=none;" vertex="1" connectable="0" parent="3VPXe_xWvIq6c0ty66gn-49">
          <mxGeometry x="0.1594" relative="1" as="geometry">
            <mxPoint x="-4" y="-10" as="offset" />
          </mxGeometry>
        </mxCell>
        <mxCell id="3VPXe_xWvIq6c0ty66gn-51" value="처리율 한도: 분당 5개 요청" style="text;html=1;align=center;verticalAlign=middle;resizable=0;points=[];autosize=1;strokeColor=none;fillColor=none;" vertex="1" parent="1">
          <mxGeometry x="590" y="48" width="170" height="30" as="geometry" />
        </mxCell>
      </root>
    </mxGraphModel>
  </diagram>
</mxfile>
